<?xml version="1.0" encoding="UTF-8" standalone="no"?>
<svg
   xmlns:dc="http://purl.org/dc/elements/1.1/"
   xmlns:cc="http://creativecommons.org/ns#"
   xmlns:rdf="http://www.w3.org/1999/02/22-rdf-syntax-ns#"
   xmlns:svg="http://www.w3.org/2000/svg"
   xmlns="http://www.w3.org/2000/svg"
   xmlns:sodipodi="http://sodipodi.sourceforge.net/DTD/sodipodi-0.dtd"
   xmlns:inkscape="http://www.inkscape.org/namespaces/inkscape"
   version="1.0"
   width="500.000000pt"
   height="500.000000pt"
   viewBox="0 0 500.000000 500.000000"
   preserveAspectRatio="xMidYMid meet"
   id="svg14"
   sodipodi:docname="favicon.svg"
   inkscape:version="0.92.3 (2405546, 2018-03-11)">
  <metadata
     id="metadata20">
    <rdf:RDF>
      <cc:Work
         rdf:about="">
        <dc:format>image/svg+xml</dc:format>
        <dc:type
           rdf:resource="http://purl.org/dc/dcmitype/StillImage" />
      </cc:Work>
    </rdf:RDF>
  </metadata>
  <defs
     id="defs18" />
  <sodipodi:namedview
     pagecolor="#ffffff"
     bordercolor="#666666"
     borderopacity="1"
     objecttolerance="10"
     gridtolerance="10"
     guidetolerance="10"
     inkscape:pageopacity="0"
     inkscape:pageshadow="2"
     inkscape:window-width="761"
     inkscape:window-height="480"
     id="namedview16"
     showgrid="false"
     inkscape:zoom="0.354"
     inkscape:cx="333.33333"
     inkscape:cy="333.33333"
     inkscape:window-x="0"
     inkscape:window-y="27"
     inkscape:window-maximized="0"
     inkscape:current-layer="svg14" />
  <g
     transform="translate(0.000000,500.000000) scale(0.100000,-0.100000)"
     fill="#000000"
     stroke="none"
     id="g12"
     style="fill:#ee0000;fill-opacity:1">
    <path
       d="M2335 4984 c-22 -2 -85 -9 -139 -14 -318 -33 -719 -170 -976 -335 -39 -25 -73 -45 -76 -45 -24 0 -356 -272 -434 -357 -99 -106 -180 -204 -180 -218 0 -3 28 -5 61 -3 l62 3 14 54 c40 158 156 260 283 248 133 -12 301 -121 458 -300 65 -74 159 -204 201 -279 82 -148 149 -296 165 -362 4 -15 9 -26 12 -24 2 3 -3 47 -13 99 -13 74 -17 155 -17 374 -1 300 5 359 51 500 54 168 115 255 209 301 48 23 63 26 127 22 79 -5 159 -40 230 -100 l37 -32 43 41 c79 78 207 123 344 123 141 0 261 -60 337 -168 36 -50 81 -163 91 -225 12 -76 13 -77 58 -77 59 0 168 -25 214 -49 52 -26 109 -91 122 -138 21 -75 10 -225 -22 -308 -37 -93 -135 -273 -186 -341 -51 -68 -383 -399 -491 -491 -110 -93 -327 -204 -447 -228 -39 -8 -42 3 -17 86 21 69 62 150 122 242 52 78 112 180 112 191 0 15 -67 -32 -141 -100 -72 -66 -132 -104 -145 -91 -3 3 8 50 25 104 48 153 91 383 73 383 -19 0 -65 -65 -98 -138 -19 -39 -34 -75 -34 -78 0 -14 -81 -171 -99 -191 -39 -45 -43 -37 -65 142 -8 61 -21 126 -29 145 -19 42 -15 54 -52 -180 -40 -254 -67 -350 -99 -350 -30 0 -86 69 -123 151 -30 65 -33 69 -28 34 3 -22 9 -82 13 -133 l8 -93 -51 7 c-45 6 -57 13 -115 72 -36 36 -84 93 -108 126 -51 73 -151 186 -164 186 -13 0 -4 -28 47 -145 46 -106 71 -182 63 -190 -7 -7 -62 23 -158 86 -91 60 -237 144 -270 154 -48 15 -12 -35 121 -169 151 -151 204 -212 192 -219 -8 -5 -179 23 -263 42 -59 14 -70 14 -70 -2 0 -18 88 -68 195 -112 135 -55 203 -94 235 -136 31 -38 39 -69 18 -69 -6 0 -36 -12 -67 -27 -48 -22 -74 -27 -176 -32 l-120 -6 95 -8 c105 -9 270 -36 284 -48 10 -9 -30 -68 -69 -101 -39 -33 -138 -83 -193 -98 -81 -21 -200 -71 -217 -90 -18 -19 -17 -20 16 -20 19 0 79 5 134 11 95 11 102 11 143 -10 23 -12 42 -25 42 -30 0 -4 -19 -16 -41 -27 -92 -41 -240 -160 -295 -237 -20 -27 -34 -51 -31 -53 8 -8 126 45 227 102 172 98 240 125 240 98 0 -14 -62 -137 -81 -160 -12 -15 -69 -154 -63 -154 18 0 100 69 154 131 133 150 164 179 213 204 44 22 97 33 97 21 0 -21 -53 -244 -69 -290 -30 -85 -26 -91 10 -16 44 93 90 160 149 213 54 49 80 59 80 30 0 -17 19 -202 40 -388 5 -49 12 -106 16 -125 l6 -35 15 29 c9 16 24 78 34 137 16 99 48 178 71 179 12 0 24 -30 51 -126 42 -147 126 -333 151 -334 14 0 -2 217 -23 305 -26 111 -34 192 -19 201 7 4 48 -33 106 -95 98 -106 160 -153 147 -112 -3 12 -27 58 -52 104 -106 190 -182 382 -159 404 9 9 91 -21 206 -76 52 -25 100 -47 105 -49 6 -2 -20 23 -57 57 -76 70 -133 144 -144 185 l-7 29 101 -6 c91 -6 249 -41 425 -92 38 -11 47 -11 47 -1 0 20 -27 39 -125 91 -93 49 -164 95 -165 107 0 12 98 27 220 32 162 6 276 25 258 41 -23 21 -139 53 -256 71 -127 19 -127 17 -30 86 100 72 390 288 443 331 84 69 174 156 298 292 66 72 126 134 135 139 19 11 226 1 273 -13 54 -17 124 -83 146 -139 23 -61 23 -200 0 -301 -10 -40 -17 -74 -15 -75 2 -1 23 -11 48 -23 59 -27 151 -111 184 -167 44 -76 59 -134 59 -232 0 -135 -27 -208 -107 -288 -33 -34 -94 -81 -134 -106 -41 -24 -76 -49 -79 -56 -2 -6 2 -28 11 -47 8 -20 18 -71 21 -114 12 -136 -27 -220 -125 -270 -53 -27 -60 -28 -210 -28 -137 0 -168 3 -265 28 -122 31 -288 90 -410 145 -107 49 -280 143 -337 183 -56 40 -37 15 69 -93 218 -222 403 -491 483 -705 46 -123 54 -308 16 -388 -41 -85 -152 -139 -312 -151 l-92 -7 -6 -46 c-7 -52 -66 -184 -98 -219 -26 -26 -18 -27 70 -6 195 47 386 117 569 210 473 239 844 611 1087 1086 126 248 184 422 241 728 20 109 38 381 31 485 -4 50 -9 131 -12 180 -3 50 -17 142 -31 205 -14 63 -29 131 -33 150 -43 202 -188 534 -320 734 -8 13 -27 42 -43 64 -15 23 -51 73 -80 111 -53 67 -54 68 -83 56 -57 -23 -144 22 -144 76 0 10 -4 19 -10 19 -5 0 -10 -8 -10 -18 0 -11 -9 -45 -20 -77 -25 -72 -25 -71 6 -46 32 25 83 27 124 6 38 -20 50 -43 50 -98 0 -39 -5 -49 -35 -76 -43 -38 -88 -41 -135 -8 -18 12 -38 37 -44 54 l-11 33 -18 -48 c-10 -26 -23 -55 -28 -64 -14 -27 -11 -30 13 -14 12 9 42 16 66 16 70 0 125 -69 108 -136 -11 -44 -59 -84 -101 -84 -61 0 -115 39 -115 84 0 46 -16 35 -49 -32 -19 -38 -26 -60 -17 -53 11 9 33 12 68 9 42 -4 56 -11 75 -34 43 -54 26 -141 -32 -169 -73 -34 -142 0 -164 82 -6 21 -9 18 -40 -34 -56 -94 -187 -270 -283 -380 -257 -295 -477 -470 -883 -700 -82 -47 -263 -131 -345 -160 -130 -47 -152 -53 -226 -62 -84 -11 -103 -3 -157 61 -43 51 -59 117 -38 155 21 40 98 79 218 112 193 53 275 85 498 192 164 79 367 198 492 291 29 21 55 38 58 38 7 0 106 80 166 134 25 22 72 63 105 91 64 53 115 105 173 175 47 56 171 228 171 236 0 3 -11 -1 -25 -10 -30 -20 -58 -20 -94 -2 -37 20 -51 39 -61 82 -11 47 8 87 53 114 39 24 68 25 108 4 31 -16 59 -65 59 -106 1 -21 2 -20 17 7 8 17 29 52 45 78 17 26 27 51 24 55 -4 3 -11 0 -15 -7 -5 -7 -28 -15 -52 -18 -61 -6 -104 22 -119 76 -27 100 67 174 160 126 38 -20 53 -50 52 -100 -1 -39 0 -38 43 48 25 48 45 90 45 93 0 3 -13 -4 -29 -15 -34 -25 -62 -26 -99 -7 -67 35 -88 98 -52 159 21 35 36 44 86 51 50 8 114 -43 114 -90 0 -13 3 -24 8 -24 8 0 64 141 58 147 -2 3 -16 -3 -30 -12 -40 -26 -103 -15 -138 25 -30 33 -37 84 -17 121 11 22 5 29 -96 99 -303 213 -729 377 -1094 420 -93 11 -421 21 -486 14z"
       id="path2"
       style="fill:#ee0000;fill-opacity:1" />
    <path
       d="M4246 4255 c-9 -26 -7 -32 5 -12 6 10 9 21 6 23 -2 3 -7 -2 -11 -11z"
       id="path4"
       style="fill:#ee0000;fill-opacity:1" />
    <path
       d="M15 2623 c-9 -132 15 -523 32 -523 3 0 17 8 31 19 35 24 179 91 197 91 7 0 16 4 19 9 3 5 16 11 28 14 13 3 73 19 133 36 144 41 269 60 490 76 99 7 155 13 125 14 -270 7 -771 167 -982 315 l-66 46 -7 -97z"
       id="path6"
       style="fill:#ee0000;fill-opacity:1" />
    <path
       d="M1735 1423 c-53 -143 -173 -397 -225 -472 -9 -14 -34 -52 -54 -84 -90 -139 -224 -282 -333 -354 -29 -20 -53 -39 -53 -43 0 -21 288 -186 429 -245 47 -20 101 -43 118 -51 30 -14 112 -44 118 -44 2 0 -8 22 -21 50 -67 140 -97 408 -75 679 17 208 57 427 101 550 11 30 18 57 16 59 -2 2 -12 -18 -21 -45z"
       id="path8"
       style="fill:#ee0000;fill-opacity:1" />
    <path
       d="M2191 71 l-45 -38 110 -10 c60 -5 110 -9 111 -8 3 2 -125 95 -130 95 -1 0 -22 -18 -46 -39z"
       id="path10"
       style="fill:#ee0000;fill-opacity:1" />
  </g>
</svg>
